<?xml version="1.0" encoding="UTF-8"?>
<svg version="1.1" xmlns="http://www.w3.org/2000/svg" width="512" height="512">
<path d="M0 0 C1.23316452 0.00273422 1.23316452 0.00273422 2.49124146 0.00552368 C16.64117608 0.05799351 30.47470164 0.88143357 44.4375 3.3125 C45.35853516 3.4681543 46.27957031 3.62380859 47.22851562 3.78417969 C87.20421106 10.80163709 125.6857943 28.06804794 157.4375 53.3125 C158.345 54.02792969 159.2525 54.74335937 160.1875 55.48046875 C174.92560705 67.30863705 188.83777571 80.36853889 200.4375 95.3125 C200.89237793 95.8909668 201.34725586 96.46943359 201.81591797 97.06542969 C230.00394939 133.02329937 247.03648293 174.38884393 254.4375 219.3125 C254.57172363 220.10849609 254.70594727 220.90449219 254.84423828 221.72460938 C258.90848545 247.08185329 257.7978584 275.12465817 253.4375 300.3125 C253.20401855 301.69622803 253.20401855 301.69622803 252.96582031 303.10791016 C245.94747194 343.08167681 228.68079046 381.56225533 203.4375 413.3125 C202.72207031 414.22 202.00664062 415.1275 201.26953125 416.0625 C189.42269472 430.823868 176.34812854 444.62910339 161.4375 456.3125 C160.47585938 457.09109375 159.51421875 457.8696875 158.5234375 458.671875 C114.22564098 493.88581958 57.8940031 512.9031878 1.4375 512.625 C0.63968109 512.62284485 -0.15813782 512.6206897 -0.98013306 512.61846924 C-40.34219572 512.44928361 -78.18074929 503.64693142 -113.5625 486.3125 C-114.2951709 485.95575195 -115.0278418 485.59900391 -115.78271484 485.23144531 C-132.20626802 477.13996746 -147.38387435 466.87144744 -161.5625 455.3125 C-162.11325195 454.86471191 -162.66400391 454.41692383 -163.23144531 453.95556641 C-176.59743434 443.00002497 -188.9861461 431.00651046 -199.5625 417.3125 C-200.72265625 415.87777344 -200.72265625 415.87777344 -201.90625 414.4140625 C-229.62642172 379.58840372 -246.23565269 337.9632525 -253.5625 294.3125 C-253.76166016 293.15645264 -253.76166016 293.15645264 -253.96484375 291.97705078 C-258.14707107 266.36090845 -256.99313457 237.75979195 -252.5625 212.3125 C-252.4068457 211.39146484 -252.25119141 210.47042969 -252.09082031 209.52148438 C-245.07336291 169.54578894 -227.80695206 131.0642057 -202.5625 99.3125 C-201.84707031 98.405 -201.13164062 97.4975 -200.39453125 96.5625 C-188.54769472 81.801132 -175.47312854 67.99589661 -160.5625 56.3125 C-159.12003906 55.14460938 -159.12003906 55.14460938 -157.6484375 53.953125 C-113.1252276 18.55999105 -56.70211747 -0.26389892 0 0 Z M0.4375 39.3125 C0.4375 182.5325 0.4375 325.7525 0.4375 473.3125 C13.71539125 473.32962167 13.71539125 473.32962167 26.8125 472.1875 C27.82505859 472.05553223 28.83761719 471.92356445 29.88085938 471.78759766 C77.02611052 465.19451561 118.07020434 443.83441883 152.4375 411.3125 C153.36691406 410.43722656 154.29632813 409.56195313 155.25390625 408.66015625 C161.90605022 402.21618748 167.64556192 395.33890451 173.20458984 387.94677734 C174.29490595 386.50151477 175.40573568 385.07177774 176.51953125 383.64453125 C210.15022695 339.4657151 223.30274148 280.63856825 215.91845703 226.08911133 C208.91704047 180.11572133 188.56856639 138.83307614 156.4375 105.3125 C155.93492676 104.78269531 155.43235352 104.25289063 154.91455078 103.70703125 C138.56567248 86.54809634 119.37147984 73.31367429 98.4375 62.3125 C97.78620117 61.96977051 97.13490234 61.62704102 96.46386719 61.27392578 C66.69424914 45.87305107 33.73481515 39.3125 0.4375 39.3125 Z " fill="#E4E4E4" transform="translate(255.5625,-0.31250000000000006)"/>
</svg>
